<mxfile host="Electron" modified="2024-02-06T01:34:03.424Z" agent="Mozilla/5.0 (X11; Linux x86_64) AppleWebKit/537.36 (KHTML, like Gecko) draw.io/23.0.2 Chrome/120.0.6099.109 Electron/28.1.0 Safari/537.36" etag="bo3RSjVSXFnMPg-0Aomk" version="23.0.2" type="device">
  <diagram name="soh-monitor State Chart" id="fo18u6Ch1KVScq3Fo-Wy">
    <mxGraphModel dx="1135" dy="1569" grid="1" gridSize="10" guides="1" tooltips="1" connect="1" arrows="1" fold="1" page="1" pageScale="1" pageWidth="800" pageHeight="350" background="#999999" math="0" shadow="0">
      <root>
        <object label="" description="State chart for soh-monitor.sh." rev="1.0" id="0">
          <mxCell />
        </object>
        <object label="Title Block" id="1">
          <mxCell style="locked=1;" parent="0" />
        </object>
        <mxCell id="h7L3MlKvrl_dhOmhB3lf-10" value="Prepared with: draw.io v23.0.2" style="strokeWidth=1;shadow=0;dashed=0;align=center;html=1;shape=mxgraph.mockup.text.textBox;fontColor=#666666;align=left;fontSize=17;spacingLeft=4;spacingTop=-3;whiteSpace=wrap;strokeColor=#333333;mainText=;fillColor=none;fontFamily=Open Sans;movable=1;resizable=1;rotatable=1;deletable=1;editable=1;locked=0;connectable=1;" parent="1" vertex="1">
          <mxGeometry x="220" y="300" width="280" height="30" as="geometry" />
        </mxCell>
        <object label="&lt;div align=&quot;left&quot;&gt;Sheet %pagenumber%/%pagecount%&lt;/div&gt;" placeholders="1" id="h7L3MlKvrl_dhOmhB3lf-12">
          <mxCell style="strokeWidth=1;shadow=0;dashed=0;align=left;html=1;shape=mxgraph.mockup.text.textBox;fontColor=#666666;align=left;fontSize=17;spacingLeft=4;spacingTop=-3;whiteSpace=wrap;strokeColor=#333333;mainText=;fillColor=none;fontFamily=Open Sans;movable=1;resizable=1;rotatable=1;deletable=1;editable=1;locked=0;connectable=1;" parent="1" vertex="1">
            <mxGeometry x="60" y="300" width="160" height="30" as="geometry" />
          </mxCell>
        </object>
        <object label="Date: &lt;font style=&quot;font-size: 17px;&quot;&gt;%date{ddd mmm dd yyyy HH:MM:ss}%&lt;/font&gt;" placeholders="1" id="h7L3MlKvrl_dhOmhB3lf-13">
          <mxCell style="strokeWidth=1;shadow=0;dashed=0;align=center;html=1;shape=mxgraph.mockup.text.textBox;fontColor=#666666;align=left;fontSize=17;spacingLeft=4;spacingTop=-3;whiteSpace=wrap;strokeColor=#333333;mainText=;fillColor=none;fontFamily=Open Sans;movable=1;resizable=1;rotatable=1;deletable=1;editable=1;locked=0;connectable=1;" parent="1" vertex="1">
            <mxGeometry x="500" y="300" width="280" height="30" as="geometry" />
          </mxCell>
        </object>
        <object label="&lt;b&gt;Title: %page%&lt;/b&gt;" placeholders="1" id="h7L3MlKvrl_dhOmhB3lf-14">
          <mxCell style="strokeWidth=1;shadow=0;dashed=0;align=center;html=1;shape=mxgraph.mockup.text.textBox;fontColor=#666666;align=left;fontSize=17;spacingLeft=4;spacingTop=-3;whiteSpace=wrap;strokeColor=#333333;mainText=;fillColor=none;fontFamily=Open Sans;movable=1;resizable=1;rotatable=1;deletable=1;editable=1;locked=0;connectable=1;" parent="1" vertex="1">
            <mxGeometry x="60" y="240" width="720" height="30" as="geometry" />
          </mxCell>
        </object>
        <object label="Filename: %filename%" placeholders="1" id="h7L3MlKvrl_dhOmhB3lf-15">
          <mxCell style="strokeWidth=1;shadow=0;dashed=0;align=center;html=1;shape=mxgraph.mockup.text.textBox;fontColor=#666666;align=left;fontSize=17;spacingLeft=4;spacingTop=-3;whiteSpace=wrap;strokeColor=#333333;mainText=;fillColor=none;fontFamily=Open Sans;movable=1;resizable=1;rotatable=1;deletable=1;editable=1;locked=0;connectable=1;" parent="1" vertex="1">
            <mxGeometry x="60" y="270" width="510" height="30" as="geometry" />
          </mxCell>
        </object>
        <object label="&lt;div align=&quot;left&quot;&gt;%description%&lt;/div&gt;" placeholders="1" id="h7L3MlKvrl_dhOmhB3lf-16">
          <mxCell style="strokeWidth=1;shadow=0;dashed=0;html=1;shape=mxgraph.mockup.text.textBox;fontColor=#666666;align=left;verticalAlign=top;fontSize=12;spacingLeft=4;spacingTop=-3;whiteSpace=wrap;strokeColor=#333333;mainText=;fillColor=none;fontFamily=Open Sans;movable=1;resizable=1;rotatable=1;deletable=1;editable=1;locked=0;connectable=1;" parent="1" vertex="1">
            <mxGeometry x="60" y="200" width="720" height="40" as="geometry" />
          </mxCell>
        </object>
        <object label="&lt;b&gt;Rev: %rev%&lt;br&gt;&lt;/b&gt;" placeholders="1" id="EyKvBmyPNv_MzgSUc5b6-1">
          <mxCell style="strokeWidth=1;shadow=0;dashed=0;align=center;html=1;shape=mxgraph.mockup.text.textBox;fontColor=#666666;align=left;fontSize=17;spacingLeft=4;spacingTop=-3;whiteSpace=wrap;strokeColor=#333333;mainText=;fillColor=none;fontFamily=Open Sans;movable=1;resizable=1;rotatable=1;deletable=1;editable=1;locked=0;connectable=1;" parent="1" vertex="1">
            <mxGeometry x="570" y="270" width="210" height="30" as="geometry" />
          </mxCell>
        </object>
        <object label="Drawing Frame" id="2jkEU8j2_UPUL1MGRyPS-1">
          <mxCell style="locked=1;" parent="0" />
        </object>
        <mxCell id="2jkEU8j2_UPUL1MGRyPS-2" value="" style="rounded=0;whiteSpace=wrap;html=1;fillColor=none;strokeWidth=3;movable=1;resizable=1;rotatable=1;deletable=1;editable=1;locked=0;connectable=1;" parent="2jkEU8j2_UPUL1MGRyPS-1" vertex="1">
          <mxGeometry x="60" y="-460" width="720" height="790" as="geometry" />
        </mxCell>
        <object label="Document" id="NbdiYjX3MhI7OpqD2NvG-1">
          <mxCell parent="0" />
        </object>
        <mxCell id="K-I57Z_-Guhcur6P4ZCW-2" value="[Error Count &amp;gt; Max Error Count]" style="edgeStyle=orthogonalEdgeStyle;rounded=0;orthogonalLoop=1;jettySize=auto;html=1;fontFamily=Open Sans;" edge="1" parent="NbdiYjX3MhI7OpqD2NvG-1" source="hTzr3CFl4ioeJvV2ZkVr-21" target="hTzr3CFl4ioeJvV2ZkVr-3">
          <mxGeometry x="-0.1111" relative="1" as="geometry">
            <mxPoint as="offset" />
          </mxGeometry>
        </mxCell>
        <mxCell id="K-I57Z_-Guhcur6P4ZCW-25" value="[SIGINT]" style="edgeStyle=orthogonalEdgeStyle;rounded=0;orthogonalLoop=1;jettySize=auto;html=1;entryX=0.5;entryY=0;entryDx=0;entryDy=0;fontFamily=Open Sans;elbow=vertical;dashed=1;exitX=0;exitY=0.25;exitDx=0;exitDy=0;" edge="1" parent="NbdiYjX3MhI7OpqD2NvG-1" source="hTzr3CFl4ioeJvV2ZkVr-21" target="K-I57Z_-Guhcur6P4ZCW-26">
          <mxGeometry x="-0.5" relative="1" as="geometry">
            <Array as="points">
              <mxPoint x="170" y="-230" />
            </Array>
            <mxPoint as="offset" />
          </mxGeometry>
        </mxCell>
        <mxCell id="K-I57Z_-Guhcur6P4ZCW-32" value="[SIGKILL]" style="edgeStyle=orthogonalEdgeStyle;rounded=0;orthogonalLoop=1;jettySize=auto;html=1;exitX=0.75;exitY=1;exitDx=0;exitDy=0;entryX=1;entryY=0.5;entryDx=0;entryDy=0;fontFamily=Open Sans;" edge="1" parent="NbdiYjX3MhI7OpqD2NvG-1" source="hTzr3CFl4ioeJvV2ZkVr-21" target="hTzr3CFl4ioeJvV2ZkVr-3">
          <mxGeometry x="-0.5714" relative="1" as="geometry">
            <Array as="points">
              <mxPoint x="600" y="155" />
            </Array>
            <mxPoint as="offset" />
          </mxGeometry>
        </mxCell>
        <mxCell id="hTzr3CFl4ioeJvV2ZkVr-21" value="script_main" style="html=1;align=center;verticalAlign=top;rounded=1;absoluteArcSize=1;arcSize=10;dashed=0;whiteSpace=wrap;fillColor=#F0F0F0;fontFamily=Open Sans;" parent="NbdiYjX3MhI7OpqD2NvG-1" vertex="1">
          <mxGeometry x="270" y="-340" width="440" height="440" as="geometry" />
        </mxCell>
        <mxCell id="K-I57Z_-Guhcur6P4ZCW-1" style="edgeStyle=orthogonalEdgeStyle;rounded=0;orthogonalLoop=1;jettySize=auto;html=1;entryX=0.25;entryY=0;entryDx=0;entryDy=0;" edge="1" parent="NbdiYjX3MhI7OpqD2NvG-1" source="hTzr3CFl4ioeJvV2ZkVr-1" target="hTzr3CFl4ioeJvV2ZkVr-21">
          <mxGeometry relative="1" as="geometry" />
        </mxCell>
        <mxCell id="hTzr3CFl4ioeJvV2ZkVr-1" value="Entry" style="ellipse;shape=doubleEllipse;html=1;dashed=0;whiteSpace=wrap;aspect=fixed;fontFamily=Open Sans;fillColor=#CCCCCC;fontColor=#333333;strokeColor=#666666;" parent="NbdiYjX3MhI7OpqD2NvG-1" vertex="1">
          <mxGeometry x="350" y="-430" width="60" height="60" as="geometry" />
        </mxCell>
        <mxCell id="hTzr3CFl4ioeJvV2ZkVr-3" value="" style="ellipse;html=1;shape=endState;fillColor=strokeColor;verticalAlign=top;labelPosition=center;verticalLabelPosition=bottom;align=center;fontFamily=Open Sans;" parent="NbdiYjX3MhI7OpqD2NvG-1" vertex="1">
          <mxGeometry x="475" y="140" width="30" height="30" as="geometry" />
        </mxCell>
        <mxCell id="K-I57Z_-Guhcur6P4ZCW-4" style="edgeStyle=orthogonalEdgeStyle;rounded=0;orthogonalLoop=1;jettySize=auto;html=1;" edge="1" parent="NbdiYjX3MhI7OpqD2NvG-1" source="hTzr3CFl4ioeJvV2ZkVr-4" target="hTzr3CFl4ioeJvV2ZkVr-5">
          <mxGeometry relative="1" as="geometry" />
        </mxCell>
        <mxCell id="hTzr3CFl4ioeJvV2ZkVr-4" value="parse args" style="shape=ellipse;html=1;dashed=0;whiteSpace=wrap;aspect=fixed;perimeter=ellipsePerimeter;fontFamily=Open Sans;fillColor=#CCCCCC;fontColor=#333333;strokeColor=#666666;" parent="NbdiYjX3MhI7OpqD2NvG-1" vertex="1">
          <mxGeometry x="300" y="-275" width="60" height="60" as="geometry" />
        </mxCell>
        <mxCell id="K-I57Z_-Guhcur6P4ZCW-5" style="rounded=0;orthogonalLoop=1;jettySize=auto;html=1;edgeStyle=elbowEdgeStyle;elbow=vertical;" edge="1" parent="NbdiYjX3MhI7OpqD2NvG-1" source="hTzr3CFl4ioeJvV2ZkVr-5" target="K-I57Z_-Guhcur6P4ZCW-7">
          <mxGeometry relative="1" as="geometry">
            <mxPoint x="480" y="-265" as="targetPoint" />
          </mxGeometry>
        </mxCell>
        <mxCell id="hTzr3CFl4ioeJvV2ZkVr-5" value="trap SIGINT" style="shape=ellipse;html=1;dashed=0;whiteSpace=wrap;aspect=fixed;perimeter=ellipsePerimeter;fontFamily=Open Sans;fillColor=#CCCCCC;fontColor=#333333;strokeColor=#666666;" parent="NbdiYjX3MhI7OpqD2NvG-1" vertex="1">
          <mxGeometry x="390" y="-275" width="60" height="60" as="geometry" />
        </mxCell>
        <mxCell id="K-I57Z_-Guhcur6P4ZCW-21" style="edgeStyle=elbowEdgeStyle;rounded=0;orthogonalLoop=1;jettySize=auto;html=1;elbow=vertical;" edge="1" parent="NbdiYjX3MhI7OpqD2NvG-1" source="K-I57Z_-Guhcur6P4ZCW-7" target="hTzr3CFl4ioeJvV2ZkVr-7">
          <mxGeometry relative="1" as="geometry" />
        </mxCell>
        <mxCell id="K-I57Z_-Guhcur6P4ZCW-7" value="monitor" style="html=1;align=right;verticalAlign=top;rounded=1;absoluteArcSize=1;arcSize=10;dashed=0;whiteSpace=wrap;fillColor=#CCCCCC;fontFamily=Open Sans;labelPosition=center;verticalLabelPosition=middle;" vertex="1" parent="NbdiYjX3MhI7OpqD2NvG-1">
          <mxGeometry x="520" y="-310" width="170" height="395" as="geometry" />
        </mxCell>
        <mxCell id="K-I57Z_-Guhcur6P4ZCW-23" style="edgeStyle=orthogonalEdgeStyle;rounded=0;orthogonalLoop=1;jettySize=auto;html=1;" edge="1" parent="NbdiYjX3MhI7OpqD2NvG-1" source="hTzr3CFl4ioeJvV2ZkVr-7" target="hTzr3CFl4ioeJvV2ZkVr-5">
          <mxGeometry relative="1" as="geometry" />
        </mxCell>
        <mxCell id="hTzr3CFl4ioeJvV2ZkVr-7" value="sleep" style="shape=ellipse;html=1;dashed=0;whiteSpace=wrap;aspect=fixed;perimeter=ellipsePerimeter;fontFamily=Open Sans;fillColor=#CCCCCC;fontColor=#333333;strokeColor=#666666;" parent="NbdiYjX3MhI7OpqD2NvG-1" vertex="1">
          <mxGeometry x="390" y="-85" width="60" height="60" as="geometry" />
        </mxCell>
        <mxCell id="K-I57Z_-Guhcur6P4ZCW-12" style="edgeStyle=orthogonalEdgeStyle;rounded=0;orthogonalLoop=1;jettySize=auto;html=1;" edge="1" parent="NbdiYjX3MhI7OpqD2NvG-1" source="K-I57Z_-Guhcur6P4ZCW-9" target="K-I57Z_-Guhcur6P4ZCW-11">
          <mxGeometry relative="1" as="geometry" />
        </mxCell>
        <mxCell id="K-I57Z_-Guhcur6P4ZCW-9" value="trap SIGINT" style="shape=ellipse;html=1;dashed=0;whiteSpace=wrap;aspect=fixed;perimeter=ellipsePerimeter;fontFamily=Open Sans;fillColor=#999999;fontColor=#333333;strokeColor=#666666;" vertex="1" parent="NbdiYjX3MhI7OpqD2NvG-1">
          <mxGeometry x="580" y="-275" width="60" height="60" as="geometry" />
        </mxCell>
        <mxCell id="K-I57Z_-Guhcur6P4ZCW-15" value="[Timeout]" style="edgeStyle=orthogonalEdgeStyle;rounded=0;orthogonalLoop=1;jettySize=auto;html=1;fontFamily=Open Sans;" edge="1" parent="NbdiYjX3MhI7OpqD2NvG-1" source="K-I57Z_-Guhcur6P4ZCW-11" target="K-I57Z_-Guhcur6P4ZCW-14">
          <mxGeometry x="0.2" relative="1" as="geometry">
            <mxPoint as="offset" />
          </mxGeometry>
        </mxCell>
        <mxCell id="K-I57Z_-Guhcur6P4ZCW-11" value="read line" style="shape=ellipse;html=1;dashed=0;whiteSpace=wrap;aspect=fixed;perimeter=ellipsePerimeter;fontFamily=Open Sans;fillColor=#999999;fontColor=#333333;strokeColor=#666666;" vertex="1" parent="NbdiYjX3MhI7OpqD2NvG-1">
          <mxGeometry x="580" y="-185" width="60" height="60" as="geometry" />
        </mxCell>
        <mxCell id="K-I57Z_-Guhcur6P4ZCW-10" style="edgeStyle=elbowEdgeStyle;rounded=0;orthogonalLoop=1;jettySize=auto;html=1;entryX=0.5;entryY=0;entryDx=0;entryDy=0;" edge="1" parent="NbdiYjX3MhI7OpqD2NvG-1" source="K-I57Z_-Guhcur6P4ZCW-7" target="K-I57Z_-Guhcur6P4ZCW-9">
          <mxGeometry relative="1" as="geometry" />
        </mxCell>
        <mxCell id="K-I57Z_-Guhcur6P4ZCW-13" value="[else]" style="edgeStyle=orthogonalEdgeStyle;rounded=0;orthogonalLoop=1;jettySize=auto;html=1;fontFamily=Open Sans;" edge="1" parent="NbdiYjX3MhI7OpqD2NvG-1" source="K-I57Z_-Guhcur6P4ZCW-11" target="K-I57Z_-Guhcur6P4ZCW-11">
          <mxGeometry relative="1" as="geometry">
            <mxPoint as="offset" />
          </mxGeometry>
        </mxCell>
        <mxCell id="K-I57Z_-Guhcur6P4ZCW-16" value="[else]" style="edgeStyle=orthogonalEdgeStyle;rounded=0;orthogonalLoop=1;jettySize=auto;html=1;entryX=0;entryY=0.5;entryDx=0;entryDy=0;exitX=0;exitY=0.5;exitDx=0;exitDy=0;fontFamily=Open Sans;" edge="1" parent="NbdiYjX3MhI7OpqD2NvG-1" source="K-I57Z_-Guhcur6P4ZCW-14" target="K-I57Z_-Guhcur6P4ZCW-11">
          <mxGeometry relative="1" as="geometry" />
        </mxCell>
        <mxCell id="K-I57Z_-Guhcur6P4ZCW-19" value="[Error Count &amp;gt; Action Count]" style="edgeStyle=orthogonalEdgeStyle;rounded=0;orthogonalLoop=1;jettySize=auto;html=1;fontFamily=Open Sans;" edge="1" parent="NbdiYjX3MhI7OpqD2NvG-1" source="K-I57Z_-Guhcur6P4ZCW-14" target="K-I57Z_-Guhcur6P4ZCW-18">
          <mxGeometry x="0.2" relative="1" as="geometry">
            <mxPoint as="offset" />
          </mxGeometry>
        </mxCell>
        <mxCell id="K-I57Z_-Guhcur6P4ZCW-14" value="Increment Error Count" style="shape=ellipse;html=1;dashed=0;whiteSpace=wrap;aspect=fixed;perimeter=ellipsePerimeter;fontFamily=Open Sans;fillColor=#999999;fontColor=#333333;strokeColor=#666666;" vertex="1" parent="NbdiYjX3MhI7OpqD2NvG-1">
          <mxGeometry x="580" y="-95" width="60" height="60" as="geometry" />
        </mxCell>
        <mxCell id="K-I57Z_-Guhcur6P4ZCW-20" style="rounded=0;orthogonalLoop=1;jettySize=auto;html=1;elbow=vertical;exitX=0;exitY=0.5;exitDx=0;exitDy=0;entryX=-0.004;entryY=0.85;entryDx=0;entryDy=0;entryPerimeter=0;edgeStyle=elbowEdgeStyle;" edge="1" parent="NbdiYjX3MhI7OpqD2NvG-1" source="K-I57Z_-Guhcur6P4ZCW-18" target="K-I57Z_-Guhcur6P4ZCW-7">
          <mxGeometry relative="1" as="geometry" />
        </mxCell>
        <mxCell id="K-I57Z_-Guhcur6P4ZCW-18" value="Restart Node-RED" style="shape=ellipse;html=1;dashed=0;whiteSpace=wrap;aspect=fixed;perimeter=ellipsePerimeter;fontFamily=Open Sans;fillColor=#999999;fontColor=#333333;strokeColor=#666666;" vertex="1" parent="NbdiYjX3MhI7OpqD2NvG-1">
          <mxGeometry x="580" y="-5" width="60" height="60" as="geometry" />
        </mxCell>
        <mxCell id="K-I57Z_-Guhcur6P4ZCW-22" style="edgeStyle=elbowEdgeStyle;rounded=0;orthogonalLoop=1;jettySize=auto;html=1;exitX=0.136;exitY=-0.001;exitDx=0;exitDy=0;exitPerimeter=0;" edge="1" parent="NbdiYjX3MhI7OpqD2NvG-1" source="hTzr3CFl4ioeJvV2ZkVr-21" target="hTzr3CFl4ioeJvV2ZkVr-4">
          <mxGeometry relative="1" as="geometry">
            <mxPoint x="180" y="-295" as="sourcePoint" />
          </mxGeometry>
        </mxCell>
        <mxCell id="K-I57Z_-Guhcur6P4ZCW-29" style="edgeStyle=orthogonalEdgeStyle;rounded=0;orthogonalLoop=1;jettySize=auto;html=1;" edge="1" parent="NbdiYjX3MhI7OpqD2NvG-1" source="K-I57Z_-Guhcur6P4ZCW-26" target="K-I57Z_-Guhcur6P4ZCW-27">
          <mxGeometry relative="1" as="geometry" />
        </mxCell>
        <mxCell id="K-I57Z_-Guhcur6P4ZCW-26" value="sigint_trap" style="shape=ellipse;html=1;dashed=0;whiteSpace=wrap;aspect=fixed;perimeter=ellipsePerimeter;fontFamily=Open Sans;fillColor=#CCCCCC;fontColor=#333333;strokeColor=#666666;" vertex="1" parent="NbdiYjX3MhI7OpqD2NvG-1">
          <mxGeometry x="140" y="-175" width="60" height="60" as="geometry" />
        </mxCell>
        <mxCell id="K-I57Z_-Guhcur6P4ZCW-30" value="[SIGINT]" style="edgeStyle=orthogonalEdgeStyle;rounded=0;orthogonalLoop=1;jettySize=auto;html=1;entryX=0;entryY=0.5;entryDx=0;entryDy=0;exitX=0.5;exitY=1;exitDx=0;exitDy=0;fontFamily=Open Sans;" edge="1" parent="NbdiYjX3MhI7OpqD2NvG-1" source="K-I57Z_-Guhcur6P4ZCW-27" target="hTzr3CFl4ioeJvV2ZkVr-3">
          <mxGeometry x="-0.8605" relative="1" as="geometry">
            <mxPoint as="offset" />
          </mxGeometry>
        </mxCell>
        <mxCell id="K-I57Z_-Guhcur6P4ZCW-27" value="Print Error Count" style="shape=ellipse;html=1;dashed=0;whiteSpace=wrap;aspect=fixed;perimeter=ellipsePerimeter;fontFamily=Open Sans;fillColor=#CCCCCC;fontColor=#333333;strokeColor=#666666;" vertex="1" parent="NbdiYjX3MhI7OpqD2NvG-1">
          <mxGeometry x="140" y="-85" width="60" height="60" as="geometry" />
        </mxCell>
        <mxCell id="K-I57Z_-Guhcur6P4ZCW-31" value="ret" style="edgeStyle=elbowEdgeStyle;rounded=0;orthogonalLoop=1;jettySize=auto;html=1;fontFamily=Open Sans;elbow=vertical;dashed=1;exitX=1;exitY=0.5;exitDx=0;exitDy=0;" edge="1" parent="NbdiYjX3MhI7OpqD2NvG-1" source="K-I57Z_-Guhcur6P4ZCW-27" target="hTzr3CFl4ioeJvV2ZkVr-21">
          <mxGeometry relative="1" as="geometry">
            <mxPoint x="280" y="-220" as="sourcePoint" />
            <mxPoint x="180" y="-165" as="targetPoint" />
          </mxGeometry>
        </mxCell>
      </root>
    </mxGraphModel>
  </diagram>
</mxfile>
